<svg width="36" height="37" viewBox="0 0 36 37" fill="none" xmlns="http://www.w3.org/2000/svg">
<rect y="0.5" width="36" height="36" rx="18" fill="#4CAF50"/>
<g clip-path="url(#clip0_24_2398)">
<path d="M16.1103 11.1611L12.0597 4.41055C11.8932 4.13286 11.6575 3.90304 11.3758 3.74347C11.094 3.5839 10.7757 3.50002 10.4519 3.5H3.93922C3.18043 3.5 2.73629 4.35371 3.17105 4.97539L9.69078 14.2895C11.4322 12.6623 13.647 11.5455 16.1103 11.1611ZM32.0607 3.5H25.548C24.8894 3.5 24.2789 3.8457 23.9402 4.41055L19.8896 11.1611C22.3529 11.5455 24.5677 12.6623 26.3091 14.2889L32.8289 4.97539C33.2636 4.35371 32.8195 3.5 32.0607 3.5ZM18 12.875C12.3046 12.875 7.68746 17.4922 7.68746 23.1875C7.68746 28.8828 12.3046 33.5 18 33.5C23.6953 33.5 28.3125 28.8828 28.3125 23.1875C28.3125 17.4922 23.6953 12.875 18 12.875ZM23.4211 22.0895L21.1986 24.2551L21.7242 27.3148C21.8179 27.8633 21.2402 28.2822 20.7486 28.0232L18 26.5789L15.2519 28.0232C14.7597 28.284 14.1826 27.8627 14.2763 27.3148L14.8019 24.2551L12.5795 22.0895C12.1798 21.7004 12.4007 21.0213 12.9515 20.9416L16.0236 20.4939L17.3964 17.7096C17.5201 17.4588 17.7591 17.3352 17.9988 17.3352C18.2396 17.3352 18.4804 17.4605 18.6041 17.7096L19.9769 20.4939L23.049 20.9416C23.5998 21.0213 23.8207 21.7004 23.4211 22.0895Z" fill="white"/>
</g>
<defs>
<clipPath id="clip0_24_2398">
<rect width="30" height="30" fill="white" transform="translate(3 3.5)"/>
</clipPath>
</defs>
</svg>
